<?xml version="1.0" encoding="UTF-8"?>
<svg xmlns="http://www.w3.org/2000/svg" version="1.1" viewBox="0 0 2000 2000">
  <!-- Generator: Adobe Illustrator 28.7.7, SVG Export Plug-In . SVG Version: 1.2.0 Build 194)  -->
  <g>
    <g id="Layer_1">
      <rect width="2000" height="2000" style="fill: #edebeb;"/>
      <g>
        <g>
          <path d="M379.238,1408.428h23.742v93.952h64.994l-3.226,19.326h-85.51v-113.278Z"/>
          <path d="M597.687,1464.69c0,31.594-21.169,59.422-61.335,59.422-37.79,0-60.017-26.239-60.017-59.357,0-31.242,23.287-58.732,61.029-58.732,38.466,0,60.323,27.602,60.323,58.668ZM501.442,1464.386c0,22.368,12.149,40.85,36.148,40.85,24.385,0,34.992-19.819,34.992-40.225,0-21.164-11.394-40.112-36.066-40.112-23.456,0-35.073,18.839-35.073,39.487Z"/>
          <path d="M644.772,1476.392v45.314h-23.566v-113.278h59.244c25.185,0,40.325,12.161,40.325,31.839,0,14.324-7.958,23.287-20.03,26.864,5.544,1.908,17.095,6.749,17.095,26.926v5.439c0,8.065-.112,17.046,1.396,22.211h-24.4c-1.829-4.972-1.91-12.282-1.91-23.497v-3.737c0-13.142-4.936-18.08-22.523-18.08h-25.63ZM644.772,1458.19h30.205c14.747,0,21.462-5.258,21.462-16.076,0-10.05-6.827-15.485-21.109-15.485h-30.558v31.561Z"/>
          <path d="M833.919,1472.317h-64.737v30.11h71.794l-2.841,19.278h-92.744v-113.278h91.992v19.278h-68.201v25.334h64.737v19.277Z"/>
          <path d="M967.194,1476.568c0-20.045.113-40.397.754-52.684h-.16c-5.613,19.685-19.165,57.047-33.417,97.821h-20.885c-10.951-34.973-25.961-77.462-32.038-97.773h-.161c.898,13.103,1.781,35.746,1.781,54.992v42.781h-21.558v-113.278h34.321c12.726,35.729,26.022,71.529,29.39,85.412h.16c4.986-16.639,18.201-51.381,30.287-85.412h34.53v113.278h-23.004v-45.138Z"/>
          <path d="M1089.948,1408.428v113.278h-23.79v-113.278h23.79Z"/>
          <path d="M1120.685,1408.428h56.865c26.925,0,42.924,13.711,42.924,34.872,0,22.872-16.104,36.267-43.038,36.267h-32.849v42.14h-23.902v-113.278ZM1144.588,1460.755h30.668c12.903,0,21.397-4.186,21.397-17.07,0-10.354-6.602-16.558-21.397-16.558h-30.668v33.628Z"/>
          <path d="M1255.326,1488.088c3.527,10.899,11.96,18.256,31.889,18.256,19.108,0,25.309-6.426,25.309-14.775,0-8.879-5.547-14.07-31.134-18.399-37.62-6.417-45.092-18.514-45.092-33.781,0-21.753,20.855-33.253,46.953-33.253,38.224,0,48.171,19.76,49.454,32.369h-23.887c-1.827-6.282-5.931-14.666-26.289-14.666-14.124,0-22.008,4.617-22.008,13.238,0,7.42,4.651,11.537,27.354,15.514,42.345,7.476,49.033,20.371,49.033,36.555,0,19.12-15.078,34.854-51.813,34.854-34.217,0-50.19-15.367-53.702-35.911h23.934Z"/>
          <path d="M1382.192,1408.428v64.152c0,25.892,14.185,32.655,29.158,32.655,16.733,0,27.474-7.483,27.474-32.655v-64.152h23.79v64.7c0,35.167-19.294,50.984-51.97,50.984-31.872,0-52.242-14.964-52.242-50.168v-65.517h23.79Z"/>
          <path d="M1597.815,1476.568c0-20.045.113-40.397.754-52.684h-.16c-5.613,19.685-19.165,57.047-33.417,97.821h-20.886c-10.95-34.973-25.96-77.462-32.038-97.773h-.16c.898,13.103,1.78,35.746,1.78,54.992v42.781h-21.558v-113.278h34.321c12.727,35.729,26.022,71.529,29.39,85.412h.16c4.986-16.639,18.201-51.381,30.287-85.412h34.53v113.278h-23.004v-45.138Z"/>
        </g>
        <g>
          <path d="M1647.572,841.436c-19.9-28.874-114.538-26.461-148.675-21.017-3.669,17.428-9.731,37.348-16.351,53.998,39.462-3.37,68.734-12.383,109.513,0-69.712,125.824-181.757,327.162-321.838,367.282-66.082,18.923-130.629-6.999-191.607-31.067,28.654-8.814,56.292-14.018,84.986-25.244,244.848-93.899,327.68-358.009,301.02-600.165-3.769-34.377-93.7.598-112.484,6.002-133.461,41.576-253.761,129.373-317.51,255.855-15.454,30.648-23.091,54.896-36.012,84.707-47.319-144.009-139.941-240.84-274.28-308.677-30.17-15.234-149.194-61.416-176.791-51.865-23.928,8.295-18.784,48.535-19.262,68.236-2.313,96.252,7.936,197.39,45.005,287.042,59.442,143.77,193.521,256.274,347.521,284.11-67.638,24.028-144.727,59.781-214.818,24.267-106.96-54.178-189.095-164.129-248.676-265.247-18.166-30.808-31.306-64.986-50.09-95.235,33.44-10.548,68.635-9.053,102.194,0-4.606-21.555-7.876-38.026-9.292-60.24-26.022-.159-138.147-.538-147.818,27.258-8.794,13.679-8.893,18.445,0,32.981,58.804,135.176,146.562,278.387,266.324,367.8,130.55,97.429,217.888,60.24,357.132,2.054,6.64-2.792,17.029-7.657,22.852-11.107,78.884,41.875,204.13,86.382,289.454,58.246,143.969-47.438,254.599-217.19,323.453-344.051,6.74-12.403,28.814-58.625,36.052-65.185,3.868-14.676,13.041-28.754,0-40.738ZM972.252,1163.613c-264.609-24.387-390.791-240.541-392.167-487.901-.1-16.192.937-31.725-.02-48.016,20.02,2.153,47.179,12.124,66.282,19.402,209.773,79.941,325.526,243.731,325.965,470.732.02,13.22.937,33.52-.06,45.783ZM1026.23,1163.194c-.299-.558-.798-1.396-.817-2.014-7.298-282.894,120.18-459.107,388.737-533.485,2.552-.359,3.111,1.595,3.21,3.809,12.203,257.39-106.163,500.463-386.943,532.109l-4.187-.419Z"/>
          <path d="M1168.265,637.705c-18.903,10.05-29.631,18.385-46.381,31.326-12.822-54.856-77.209-125.884-120.24-166.323-2.353-2.233-.997-1.815-3.928-1.815-57.169,50.349-90.988,102.015-125.325,168.137-15.254-11.446-25.105-20.598-41.915-31.326,25.045-49.372,111.048-177.569,163.491-201.398,45.663-2.612,147.818,150.729,174.299,201.398Z"/>
        </g>
      </g>
    </g>
  </g>
</svg>